<svg width="720" height="789" viewBox="0 0 720 789" fill="none" xmlns="http://www.w3.org/2000/svg">
<path d="M360 162.642L181 3L2 162.642L2 235.403L181 75.6132M360 162.642L360 235.403M360 162.642L539 3L718 162.642V164M360 162.642V164M360 235.403L181 75.6132M360 235.403L360 164M360 235.403L400.012 199.685M181 75.6132L181 109.491M181 109.491L360 268.106M181 109.491L2 268.106V291.518L181 128.015M360 268.106L360 291.518M360 268.106L360 236.613M360 268.106V270.491M360 268.106L377.705 252.418M360 291.518L181 128.015M360 291.518V289.015M360 291.518V307.338M360 291.518L361.37 290.266M181 128.015V146.338M181 146.338L360 308L360.366 307.669M181 146.338L2 308M2 481L181 640.642M181 640.642L181 713.403M181 640.642L360 481L360.36 481.321M181 713.403L2 553.613L2 587.491L181 746.107M181 713.403L360 553.613M181 746.107L181 769.518M181 746.107L360 587.491M181 769.518L2 606.015V624.338L181 786L360 624.338M181 769.518L360 606.015M2 164L181 323.642M181 323.642L181 396.403M181 323.642L360 164M181 396.403L2 236.613V270.491L181 429.106M181 396.403L360 236.613M181 429.106L181 452.518M181 429.106L360 270.491M181 452.518L2 289.015L2 307.338L181 469L360 307.338M181 452.518L360 289.015M181 394.613L2 554.403L2 481.642L181 322L360 481.642M181 394.613V428.491M181 394.613L360 554.403M181 428.491L2 587.107V610.518L181 447.015M181 428.491L360 587.106M181 447.015V465.338M181 447.015L360 610.518M181 465.338L2 627M181 465.338L360 627L361.474 625.669M360 553.613L360 587.491M360 553.613L360.442 554.008M360 553.613V554.403M360 553.613L360 481.642M360 587.491V587.106M360 587.491L372.796 598.83M360 587.491V606.015M360 606.015L360 624.338M360 606.015L362.465 608.266M360 606.015V610.518M360 624.338L360 610.518M360 624.338L361.474 625.669M360 164L400.012 199.685M360 236.613L360 270.491M360 236.613L377.705 252.418M360 270.491L371.684 280.845M360 270.491L360 289.015M360 289.015V307.338M360 289.015L361.37 290.266M360 307.338L360.366 307.669M360 481.642L360 554.403M360 481.642L360.36 481.321M360 554.403L360 587.106M360 554.403L360.442 554.008M360 587.106V610.518M360 587.106L378.829 570.422M360 610.518L362.465 608.266M718 164L718 235.403L677.988 199.685M718 164L677.988 199.685M677.988 199.685L539 75.6132M677.988 199.685L659.447 216.221M539 75.6132L539 109.491M539 75.6132L400.012 199.685M539 109.491L659.447 216.221M539 109.491L418.553 216.221M659.447 216.221L700.295 252.418M659.447 216.221L647.364 226.997M700.295 252.418L718 268.106M700.295 252.418L687.601 263.75M700.295 252.418L718 236.613V268.106M718 268.106V270.491M718 270.491V289.015M718 270.491L706.316 280.845M718 289.015V291.518M718 289.015L716.63 290.266M718 291.518L716.63 290.266M718 291.518L718 307.338L717.634 307.669M716.63 290.266L706.316 280.845M716.63 290.266L707.549 298.561M706.316 280.845L687.601 263.75M706.316 280.845L697.037 289.067M687.601 263.75L647.364 226.997M687.601 263.75L678.248 272.099M647.364 226.997L539 128.015M647.364 226.997L637.777 235.547M539 128.015V146.338M539 128.015L430.636 226.997M539 146.338L637.777 235.547M539 146.338L440.223 235.547M637.777 235.547L678.248 272.099M637.777 235.547L539.921 322.821M678.248 272.099L697.037 289.067M678.248 272.099L580.693 359.184M697.037 289.067L707.549 298.561M697.037 289.067L599.241 375.726M707.549 298.561L717.634 307.669M707.549 298.561L611.298 386.479M717.634 307.669L718 308M717.634 307.669L620.894 395.038M360.36 481.321L401.133 517.685M360.36 481.321L457.106 395.038M401.133 517.685L419.678 534.224M401.133 517.685L360.442 554.008M401.133 517.685L497.578 431.59M419.678 534.224L431.744 544.985M419.678 534.224L516.36 448.553M419.678 534.224L378.829 570.422M431.744 544.985L441.337 553.541M431.744 544.985L391.507 581.739M431.744 544.985L526.898 458.07M441.337 553.541L539 640.642M441.337 553.541L536.973 467.169M441.337 553.541L400.865 590.093M539 640.642L539 713.403M539 640.642L636.663 553.541M539 713.403L400.865 590.093M539 713.403L677.135 590.093M400.865 590.093L391.507 581.739M400.865 590.093L382.081 607.058M391.507 581.739L378.829 570.422M391.507 581.739L372.796 598.83M378.829 570.422L360.442 554.008M372.796 598.83L382.081 607.058M372.796 598.83L362.465 608.266M382.081 607.058L539 746.107M382.081 607.058L371.552 616.567M539 746.107L539 769.518M539 746.107L695.919 607.058M539 769.518L371.552 616.567M539 769.518L706.448 616.567M371.552 616.567L362.465 608.266M371.552 616.567L361.474 625.669M361.474 625.669L539 786L716.526 625.669M400.012 199.685L418.553 216.221M418.553 216.221L430.636 226.997M418.553 216.221L377.705 252.418M430.636 226.997L440.223 235.547M430.636 226.997L390.399 263.75M440.223 235.547L538.079 322.821M440.223 235.547L399.752 272.099M538.079 322.821L539 323.642M538.079 322.821L539 322L539.921 322.821M538.079 322.821L497.307 359.184M539 323.642L539 394.613M539 323.642L539.921 322.821M539 394.613V396.403M539 394.613L537.997 395.508M539 394.613L540.003 395.508M539 396.403L537.997 395.508M539 396.403V428.491M539 396.403L540.003 395.508M537.997 395.508L497.307 359.184M537.997 395.508L519.609 411.923M497.307 359.184L399.752 272.099M497.307 359.184L478.759 375.726M399.752 272.099L390.399 263.75M399.752 272.099L380.963 289.067M390.399 263.75L377.705 252.418M390.399 263.75L371.684 280.845M371.684 280.845L380.963 289.067M371.684 280.845L361.37 290.266M380.963 289.067L478.759 375.726M380.963 289.067L370.451 298.561M478.759 375.726L519.609 411.923M478.759 375.726L466.702 386.479M519.609 411.923L538.653 428.799M519.609 411.923L506.94 423.233M538.653 428.799L539 429.106M538.653 428.799L539 428.491M538.653 428.799L525.649 440.322M539 429.106L539 447.015M539 429.106L539.347 428.799M539 447.015V452.518M539 447.015L535.988 449.766M539 447.015L542.012 449.766M539 452.518L535.988 449.766M539 452.518V465.338M539 452.518L542.012 449.766M535.988 449.766L525.649 440.322M535.988 449.766L526.898 458.07M525.649 440.322L506.94 423.233M525.649 440.322L516.36 448.553M506.94 423.233L466.702 386.479M506.94 423.233L497.578 431.59M466.702 386.479L370.451 298.561M466.702 386.479L457.106 395.038M370.451 298.561L361.37 290.266M370.451 298.561L360.366 307.669M360.366 307.669L457.106 395.038M457.106 395.038L497.578 431.59M497.578 431.59L516.36 448.553M516.36 448.553L526.898 458.07M526.898 458.07L536.973 467.169M536.973 467.169L539 469L541.027 467.169M536.973 467.169L539 465.338M539 428.491L539.347 428.799M539 465.338L541.027 467.169M718 481L717.64 481.321M717.64 481.321L676.867 517.685M717.64 481.321L620.894 395.038M717.64 481.321L718 481.642L718 553.613M676.867 517.685L658.322 534.224M676.867 517.685L717.558 554.008M676.867 517.685L580.422 431.59M658.322 534.224L646.256 544.985M658.322 534.224L561.64 448.553M658.322 534.224L699.171 570.422M646.256 544.985L636.663 553.541M646.256 544.985L686.493 581.739M646.256 544.985L551.102 458.07M636.663 553.541L541.027 467.169M636.663 553.541L677.135 590.093M677.135 590.093L686.493 581.739M677.135 590.093L695.919 607.058M686.493 581.739L699.171 570.422M686.493 581.739L705.204 598.83M699.171 570.422L717.558 554.008M699.171 570.422L718 587.106M717.558 554.008L718 553.613M717.558 554.008L718 554.403M718 553.613V554.403M718 554.403L718 587.106M718 587.106V587.491M718 587.491L705.204 598.83M718 587.491V606.015M705.204 598.83L695.919 607.058M705.204 598.83L715.535 608.266M695.919 607.058L706.448 616.567M706.448 616.567L715.535 608.266M706.448 616.567L716.526 625.669M715.535 608.266L718 606.015M715.535 608.266L718 610.518M718 606.015V610.518M718 610.518V624.338L716.526 625.669M716.526 625.669L718 627M539.921 322.821L580.693 359.184M540.003 395.508L580.693 359.184M540.003 395.508L558.391 411.923M580.693 359.184L599.241 375.726M599.241 375.726L558.391 411.923M599.241 375.726L611.298 386.479M558.391 411.923L539.347 428.799M558.391 411.923L571.06 423.233M539.347 428.799L552.351 440.322M542.012 449.766L552.351 440.322M542.012 449.766L551.102 458.07M552.351 440.322L571.06 423.233M552.351 440.322L561.64 448.553M571.06 423.233L611.298 386.479M571.06 423.233L580.422 431.59M611.298 386.479L620.894 395.038M620.894 395.038L580.422 431.59M580.422 431.59L561.64 448.553M561.64 448.553L551.102 458.07M551.102 458.07L541.027 467.169" stroke="black" stroke-width="4"/>
</svg>
