<svg width="27" height="26" viewBox="0 0 27 26" fill="none" xmlns="http://www.w3.org/2000/svg">
<path fill-rule="evenodd" clip-rule="evenodd" d="M13.4528 0.541626C6.02012 0.541626 0 6.382 0 13.5928C0 19.3679 3.85086 24.2457 9.19835 25.975C9.87099 26.0892 10.1232 25.6977 10.1232 25.3551C10.1232 25.0451 10.1064 24.0173 10.1064 22.9243C6.7264 23.5279 5.85196 22.1249 5.58291 21.3908C5.43157 21.0156 4.77574 19.8573 4.204 19.5473C3.73315 19.3026 3.06051 18.699 4.18718 18.6827C5.24659 18.6664 6.00331 19.6289 6.25555 20.0204C7.4663 21.9944 9.40014 21.4397 10.1737 21.0971C10.2914 20.2488 10.6445 19.6778 11.0313 19.3516C8.03804 19.0253 4.91027 17.8996 4.91027 12.9076C4.91027 11.4883 5.43157 10.3137 6.28918 9.40008C6.15465 9.0738 5.6838 7.73606 6.42371 5.94153C6.42371 5.94153 7.55038 5.59894 10.1232 7.27927C11.1995 6.98562 12.3429 6.83879 13.4864 6.83879C14.6299 6.83879 15.7734 6.98562 16.8496 7.27927C19.4225 5.58262 20.5491 5.94153 20.5491 5.94153C21.289 7.73606 20.8182 9.0738 20.6837 9.40008C21.5413 10.3137 22.0626 11.4719 22.0626 12.9076C22.0626 17.9159 18.918 19.0253 15.9247 19.3516C16.4124 19.7594 16.8328 20.5425 16.8328 21.766C16.8328 23.5116 16.816 24.9146 16.816 25.3551C16.816 25.6977 17.0682 26.1055 17.7409 25.975C23.0547 24.2457 26.9056 19.3516 26.9056 13.5928C26.9056 6.382 20.8855 0.541626 13.4528 0.541626Z" fill="currentColor"/>
</svg>
