<svg width="331" height="296" viewBox="0 0 331 296" fill="none" xmlns="http://www.w3.org/2000/svg">
<mask id="mask0_14_83" style="mask-type:alpha" maskUnits="userSpaceOnUse" x="5" y="5" width="280" height="285">
<path d="M147.5 5C173.252 5 197.407 11.8318 218.255 23.7803C189.096 37.9734 169 67.8893 169 102.5C169 150.825 208.175 190 256.5 190C266.455 190 276.021 188.335 284.938 185.272C268.384 245.641 213.123 290 147.5 290C68.7994 290 5 226.201 5 147.5C5 68.7994 68.7994 5 147.5 5Z" fill="#D9D9D9"/>
</mask>
<g mask="url(#mask0_14_83)">
<path d="M270.808 218.966C246.138 261.439 200.155 290 147.5 290C136.145 290 125.101 288.669 114.513 286.159C130.987 284.768 147.233 282.6 163.105 279.636L165.5 279.183C212.345 270.177 243.994 247.084 270.808 218.966ZM289.922 152.146C289.483 165.855 287.111 179.075 283.063 191.541C252.245 228.488 219.217 259.692 163.802 270.345C140.404 274.843 116.148 277.569 91.5254 278.584C80.2042 273.743 69.638 267.479 60.0498 260.016C90.3849 259.763 120.358 257.004 149.105 251.636L151.5 251.183C218.732 238.258 254.666 196.318 289.922 152.146ZM233.204 106.948C245.673 101.568 257.25 100.171 267.334 102.684C273.747 104.282 279.995 107.571 285.809 113.067C287.809 121.128 289.123 129.459 289.686 137.996C288.28 139.763 286.879 141.526 285.48 143.282C249.33 188.689 215.114 229.789 149.802 242.345C117.587 248.537 83.7447 251.374 49.5586 251.004C43.9877 245.731 38.8418 240.013 34.1787 233.907C36.0158 233.349 38.2943 232.807 41.0859 232.293C46.8797 231.225 53.7451 230.452 61.7334 229.496C92.3539 225.833 138.345 219.986 161.386 179.242C181.279 144.064 208.056 117.799 233.204 106.948ZM202.128 15.8486C211.741 19.8422 220.823 24.8582 229.237 30.7607C215.589 46.2907 210.523 63.7567 217.977 75.4863C226.683 89.1872 249.728 90.7487 273.38 80.6562C276.457 86.4392 279.148 92.4589 281.417 98.6816C242.745 76.9906 187.673 114.476 153.552 174.812L153.068 175.656C123.735 226.063 54.0749 216.361 28.7354 226.271C26.9052 223.518 25.1685 220.696 23.5293 217.812C32.6486 217.261 42.4834 216.045 52.6689 214.117L54.7305 213.719C98.1106 205.138 112.55 194.247 112.99 174.926L113 174C107.184 154.401 88.5682 153.283 44.5 162C30.7791 164.714 18.0888 168.39 7.20312 172.598C5.77497 164.56 5.02206 156.29 5.00195 147.847C25.2897 148.287 45.2581 147.597 64.6309 145.733L67 145.501C151.593 136.923 183.466 80.9326 202.128 15.8486ZM266.902 126.536C260.397 116.299 240.993 116.979 223.562 128.056C206.13 139.132 155.501 183.5 168 207L168.507 207.539C188.734 228.476 223.1 195.488 246.859 171.251L251.5 166.5C271.5 146 273.407 136.773 266.902 126.536ZM46.2461 170.829C68.4054 166.446 82.619 164.906 91.7539 166.281C96.0786 166.932 98.6239 168.159 100.26 169.529C101.663 170.706 102.948 172.449 103.971 175.327C103.83 178.57 103.169 181.135 102.069 183.299C100.83 185.739 98.7659 188.2 95.2236 190.684C87.8004 195.889 74.8273 200.569 52.9844 204.89C40.8276 207.294 29.261 208.632 18.9336 209.03C14.7555 200.316 11.4373 191.111 9.08887 181.525C19.678 177.326 32.3393 173.58 46.2461 170.829ZM249.646 128.298C255.868 128.08 258.466 130.042 259.306 131.363C260.508 133.255 260.998 134.595 261.168 135.649C261.324 136.619 261.295 137.853 260.651 139.683C259.192 143.83 254.966 150.06 245.059 160.215C232.903 172.674 218.12 187.878 203.902 197.231C196.783 201.915 190.664 204.536 185.753 205.087C181.807 205.529 178.56 204.691 175.534 201.834C174.671 199.398 174.768 195.616 177.233 189.843C179.977 183.418 185.016 176.127 191.377 168.741C204.094 153.974 220.443 140.701 228.389 135.651C235.992 130.82 243.667 128.507 249.646 128.298ZM179.293 8.56152C184.189 9.67724 188.989 11.0457 193.679 12.6514C186.281 38.6197 176.927 62.6106 163.113 82.5176C143.278 111.102 113.937 131.695 66.0918 136.547C46.3675 138.547 25.9874 139.298 5.25977 138.851C5.71399 131.264 6.76194 123.838 8.35742 116.617C37.2084 122.48 75.9827 113.781 111.879 90.8701L113.188 90.0264C148.014 67.4179 171.742 36.726 179.293 8.56152ZM148.212 5.00391C155.777 5.04091 163.202 5.66655 170.444 6.83887C169.118 11.6214 167.245 16.58 164.807 21.668C154.592 42.9852 135.041 65.1094 108.288 82.4775C81.5347 99.8457 53.3686 108.698 29.7393 109.353C22.8044 109.545 16.3955 109.037 10.5791 107.893C12.7523 100.367 15.5278 93.0966 18.8525 86.1387C39.8579 84.2823 65.5458 78.1449 89.5 65.1006L90.4453 64.5781C112.485 52.197 134.153 26.8338 148.212 5.00391ZM236.462 36.1768C249.248 46.4079 260.233 58.7954 268.865 72.7891C260.708 76.1495 252.829 77.9052 245.973 78.1455C234.957 78.5315 228.399 75.1083 225.572 70.6592C222.745 66.2101 222.432 58.8198 227.46 49.0117C229.624 44.7908 232.65 40.4334 236.462 36.1768ZM136.405 6.47754C122.529 26.5013 103.548 47.2023 85.1963 57.1963C64.6652 68.3766 42.6918 74.2318 23.8877 76.5547C46.8658 36.6047 88.6544 8.84852 137.163 5.37109C136.912 5.73843 136.661 6.10858 136.405 6.47754Z" fill="#D9D9D9"/>
</g>
<mask id="mask1_14_83" style="mask-type:alpha" maskUnits="userSpaceOnUse" x="183" y="30" width="143" height="143">
<path d="M326 101.5C326 140.988 293.988 173 254.5 173C215.012 173 183 140.988 183 101.5C183 62.0116 215.012 30 254.5 30C293.988 30 326 62.0116 326 101.5Z" fill="#D9D9D9"/>
</mask>
<g mask="url(#mask1_14_83)">
<path d="M193.436 138.712C228.103 106.548 275.522 89.3813 325.114 90.2285C325.603 93.3155 325.896 96.4678 325.977 99.6729C307.459 114.855 292.571 131.756 278.761 148.259C271.731 156.659 264.981 164.936 258.168 172.907C256.953 172.969 255.73 173 254.5 173C251.511 173 248.564 172.815 245.671 172.459C246.069 172.054 246.466 171.652 246.859 171.251L251.5 166.5C271.5 146 273.407 136.773 266.902 126.536C260.397 116.299 240.993 116.979 223.562 128.056C217.947 131.624 208.888 138.646 199.604 147.312C197.344 144.608 195.281 141.734 193.436 138.712ZM325.212 112.138C320.919 140.915 299.48 164.09 271.619 170.936C288.145 151.131 304.424 130.474 325.212 112.138ZM249.646 128.298C255.868 128.08 258.466 130.042 259.306 131.363C260.508 133.255 260.998 134.595 261.168 135.649C261.324 136.619 261.295 137.853 260.651 139.683C259.192 143.83 254.966 150.06 245.059 160.215C241.898 163.454 238.559 166.877 235.1 170.336C224.003 167.215 213.999 161.483 205.794 153.845C214.668 145.568 223.271 138.903 228.389 135.651C235.992 130.82 243.667 128.507 249.646 128.298ZM291.291 40.1816C306.456 49.3002 317.961 63.8838 323.079 81.209C272.963 80.874 224.885 98.1517 189.107 130.457C185.182 121.605 183 111.807 183 101.5C183 91.6928 184.975 82.3469 188.548 73.8379C188.959 74.749 189.434 75.633 189.977 76.4863C200.457 92.9795 231.719 91.8839 259.802 74.0391C274.785 64.518 285.833 52.1509 291.291 40.1816ZM254.5 30C264.743 30 274.482 32.1547 283.291 36.0342C282.956 36.7863 282.592 37.5556 282.19 38.3389C277.274 47.9302 267.904 58.2265 254.975 66.4424C242.045 74.6582 228.744 78.7679 217.973 79.1455C206.957 79.5315 200.399 76.1083 197.572 71.6592C195.886 69.0054 195.094 65.3053 195.797 60.6699C208.715 42.1312 230.191 30 254.5 30Z" fill="#D9D9D9"/>
</g>
</svg>
