<svg width="27" height="21" viewBox="0 0 27 21" fill="none" xmlns="http://www.w3.org/2000/svg">
<path d="M27 2.48463C26.0062 2.90626 24.94 3.19221 23.8196 3.31987C24.9636 2.66395 25.8392 1.62358 26.2542 0.38771C25.1812 0.995128 23.9968 1.43619 22.7347 1.67529C21.7241 0.642987 20.2867 0 18.6922 0C15.6334 0 13.1532 2.3748 13.1532 5.3021C13.1532 5.71726 13.2021 6.12276 13.2966 6.51051C8.69401 6.28916 4.61273 4.1777 1.88118 0.969275C1.40369 1.7512 1.13206 2.66231 1.13206 3.63488C1.13206 5.47496 2.11064 7.09854 3.59537 8.04842C2.68765 8.01936 1.83393 7.78026 1.08653 7.38284V7.44908C1.08653 10.0177 2.99643 12.1615 5.52888 12.6494C5.06489 12.769 4.57562 12.8352 4.06946 12.8352C3.7118 12.8352 3.36592 12.8013 3.02678 12.7366C3.73201 14.8449 5.77691 16.378 8.19972 16.42C6.305 17.8417 3.91593 18.6866 1.32106 18.6866C0.873972 18.6866 0.433589 18.6607 0 18.6139C2.45149 20.1212 5.36189 21 8.48993 21C18.6788 21 24.2482 12.9192 24.2482 5.91116L24.2297 5.22458C25.3179 4.48139 26.2593 3.54764 27 2.48463Z" fill="#484545"/>
</svg>
