{"asset":{"version":"2.0","generator":"THREE.GLTFExporter r175"},"scenes":[{"name":"AuxScene","nodes":[13]}],"scene":0,"nodes":[{"mesh":0},{"mesh":1},{"mesh":2},{"mesh":3},{"mesh":4},{"mesh":5},{"mesh":6},{"mesh":7},{"mesh":8},{"matrix":[0.11048543456039804,0,-0.11048543456039805,0,0,-0.15625,0,0,0.11048543456039805,0,0.11048543456039804,0,0,0,0,1],"children":[0,1,2,3,4,5,6,7,8]},{"children":[9]},{"matrix":[1,0,0,0,0,1,0,0,0,0,1,0,-36.21160243499047,49.999998807907104,34.4990782124752,1],"children":[10]},{"children":[11]},{"children":[12]}],"bufferViews":[{"buffer":0,"byteOffset":0,"byteLength":15408,"target":34962,"byteStride":12},{"buffer":0,"byteOffset":15408,"byteLength":10272,"target":34962,"byteStride":8},{"buffer":0,"byteOffset":25680,"byteLength":15408,"target":34962,"byteStride":12},{"buffer":0,"byteOffset":41088,"byteLength":15408,"target":34962,"byteStride":12},{"buffer":0,"byteOffset":56496,"byteLength":10272,"target":34962,"byteStride":8},{"buffer":0,"byteOffset":66768,"byteLength":15408,"target":34962,"byteStride":12},{"buffer":0,"byteOffset":82176,"byteLength":15408,"target":34962,"byteStride":12},{"buffer":0,"byteOffset":97584,"byteLength":10272,"target":34962,"byteStride":8},{"buffer":0,"byteOffset":107856,"byteLength":15408,"target":34962,"byteStride":12},{"buffer":0,"byteOffset":123264,"byteLength":15408,"target":34962,"byteStride":12},{"buffer":0,"byteOffset":138672,"byteLength":10272,"target":34962,"byteStride":8},{"buffer":0,"byteOffset":148944,"byteLength":15408,"target":34962,"byteStride":12},{"buffer":0,"byteOffset":164352,"byteLength":15408,"target":34962,"byteStride":12},{"buffer":0,"byteOffset":179760,"byteLength":10272,"target":34962,"byteStride":8},{"buffer":0,"byteOffset":190032,"byteLength":15408,"target":34962,"byteStride":12},{"buffer":0,"byteOffset":205440,"byteLength":15408,"target":34962,"byteStride":12},{"buffer":0,"byteOffset":220848,"byteLength":10272,"target":34962,"byteStride":8},{"buffer":0,"byteOffset":231120,"byteLength":15408,"target":34962,"byteStride":12},{"buffer":0,"byteOffset":246528,"byteLength":15408,"target":34962,"byteStride":12},{"buffer":0,"byteOffset":261936,"byteLength":10272,"target":34962,"byteStride":8},{"buffer":0,"byteOffset":272208,"byteLength":15408,"target":34962,"byteStride":12},{"buffer":0,"byteOffset":287616,"byteLength":15408,"target":34962,"byteStride":12},{"buffer":0,"byteOffset":303024,"byteLength":10272,"target":34962,"byteStride":8},{"buffer":0,"byteOffset":313296,"byteLength":15408,"target":34962,"byteStride":12},{"buffer":0,"byteOffset":328704,"byteLength":15408,"target":34962,"byteStride":12},{"buffer":0,"byteOffset":344112,"byteLength":10272,"target":34962,"byteStride":8},{"buffer":0,"byteOffset":354384,"byteLength":15408,"target":34962,"byteStride":12}],"buffers":[{"byteLength":369792,"uri":"data:application/octet-stream;base64,"}],"accessors":[{"bufferView":0,"componentType":5126,"count":1284,"max":[208.3000030517578,208.3000030517578,54.599998474121094],"min":[95.69999694824219,95.69999694824219,-0.6000000238418579],"type":"VEC3"},{"bufferView":1,"componentType":5126,"count":1284,"max":[208,208],"min":[96,-53.599998474121094],"type":"VEC2"},{"bufferView":2,"componentType":5126,"count":1284,"max":[1,1,1],"min":[-1,-1,-1],"type":"VEC3"},{"bufferView":3,"componentType":5126,"count":1284,"max":[208.3000030517578,376.29998779296875,54.599998474121094],"min":[95.69999694824219,263.70001220703125,-0.6000000238418579],"type":"VEC3"},{"bufferView":4,"componentType":5126,"count":1284,"max":[366.8506164550781,376],"min":[96,-53.599998474121094],"type":"VEC2"},{"bufferView":5,"componentType":5126,"count":1284,"max":[1,1,1],"min":[-1,-1,-1],"type":"VEC3"},{"bufferView":6,"componentType":5126,"count":1284,"max":[208.3000030517578,544.2999877929688,54.599998474121094],"min":[95.69999694824219,431.70001220703125,-0.6000000238418579],"type":"VEC3"},{"bufferView":7,"componentType":5126,"count":1284,"max":[534.8505859375,544],"min":[96,-53.599998474121094],"type":"VEC2"},{"bufferView":8,"componentType":5126,"count":1284,"max":[1,1,1],"min":[-1,-1,-1],"type":"VEC3"},{"bufferView":9,"componentType":5126,"count":1284,"max":[376.29998779296875,208.3000030517578,54.599998474121094],"min":[263.70001220703125,95.69999694824219,-0.6000000238418579],"type":"VEC3"},{"bufferView":10,"componentType":5126,"count":1284,"max":[376,208],"min":[105.1493911743164,-53.599998474121094],"type":"VEC2"},{"bufferView":11,"componentType":5126,"count":1284,"max":[1,1,1],"min":[-1,-1,-1],"type":"VEC3"},{"bufferView":12,"componentType":5126,"count":1284,"max":[376.29998779296875,376.29998779296875,54.599998474121094],"min":[263.70001220703125,263.70001220703125,-0.6000000238418579],"type":"VEC3"},{"bufferView":13,"componentType":5126,"count":1284,"max":[376,376],"min":[264,-53.599998474121094],"type":"VEC2"},{"bufferView":14,"componentType":5126,"count":1284,"max":[1,1,1],"min":[-1,-1,-1],"type":"VEC3"},{"bufferView":15,"componentType":5126,"count":1284,"max":[376.29998779296875,544.2999877929688,54.599998474121094],"min":[263.70001220703125,431.70001220703125,-0.6000000238418579],"type":"VEC3"},{"bufferView":16,"componentType":5126,"count":1284,"max":[534.8505859375,544],"min":[264,-53.599998474121094],"type":"VEC2"},{"bufferView":17,"componentType":5126,"count":1284,"max":[1,1,1],"min":[-1,-1,-1],"type":"VEC3"},{"bufferView":18,"componentType":5126,"count":1284,"max":[544.2999877929688,208.3000030517578,54.599998474121094],"min":[431.70001220703125,95.69999694824219,-0.6000000238418579],"type":"VEC3"},{"bufferView":19,"componentType":5126,"count":1284,"max":[544,208],"min":[105.1493911743164,-53.599998474121094],"type":"VEC2"},{"bufferView":20,"componentType":5126,"count":1284,"max":[1,1,1],"min":[-1,-1,-1],"type":"VEC3"},{"bufferView":21,"componentType":5126,"count":1284,"max":[544.2999877929688,376.29998779296875,54.599998474121094],"min":[431.70001220703125,263.70001220703125,-0.6000000238418579],"type":"VEC3"},{"bufferView":22,"componentType":5126,"count":1284,"max":[544,376],"min":[273.1493835449219,-53.599998474121094],"type":"VEC2"},{"bufferView":23,"componentType":5126,"count":1284,"max":[1,1,1],"min":[-1,-1,-1],"type":"VEC3"},{"bufferView":24,"componentType":5126,"count":1284,"max":[544.2999877929688,544.2999877929688,54.599998474121094],"min":[431.70001220703125,431.70001220703125,-0.6000000238418579],"type":"VEC3"},{"bufferView":25,"componentType":5126,"count":1284,"max":[544,544],"min":[432,-53.599998474121094],"type":"VEC2"},{"bufferView":26,"componentType":5126,"count":1284,"max":[1,1,1],"min":[-1,-1,-1],"type":"VEC3"}],"materials":[{"pbrMetallicRoughness":{"baseColorFactor":[0.6375968739867731,0.6653872982754769,0.7083757798856457,1],"metallicFactor":0,"roughnessFactor":0},"doubleSided":true,"extensions":{"KHR_materials_transmission":{"transmissionFactor":1},"KHR_materials_volume":{"thicknessFactor":0,"attenuationColor":[1,1,1]},"KHR_materials_clearcoat":{"clearcoatFactor":0.05,"clearcoatRoughnessFactor":0}}}],"meshes":[{"primitives":[{"mode":4,"attributes":{"POSITION":0,"TEXCOORD_0":1,"NORMAL":2},"material":0}]},{"primitives":[{"mode":4,"attributes":{"POSITION":3,"TEXCOORD_0":4,"NORMAL":5},"material":0}]},{"primitives":[{"mode":4,"attributes":{"POSITION":6,"TEXCOORD_0":7,"NORMAL":8},"material":0}]},{"primitives":[{"mode":4,"attributes":{"POSITION":9,"TEXCOORD_0":10,"NORMAL":11},"material":0}]},{"primitives":[{"mode":4,"attributes":{"POSITION":12,"TEXCOORD_0":13,"NORMAL":14},"material":0}]},{"primitives":[{"mode":4,"attributes":{"POSITION":15,"TEXCOORD_0":16,"NORMAL":17},"material":0}]},{"primitives":[{"mode":4,"attributes":{"POSITION":18,"TEXCOORD_0":19,"NORMAL":20},"material":0}]},{"primitives":[{"mode":4,"attributes":{"POSITION":21,"TEXCOORD_0":22,"NORMAL":23},"material":0}]},{"primitives":[{"mode":4,"attributes":{"POSITION":24,"TEXCOORD_0":25,"NORMAL":26},"material":0}]}],"extensionsUsed":["KHR_materials_transmission","KHR_materials_volume","KHR_materials_clearcoat"]}