{
	"asset":{
		"generator":"Khronos glTF Blender I/O v4.4.56",
		"version":"2.0"
	},
	"extensionsUsed":[
		"KHR_materials_clearcoat",
		"KHR_materials_transmission"
	],
	"scene":0,
	"scenes":[
		{
			"name":"Scene",
			"nodes":[
				0,
				1,
				2,
				3,
				4
			]
		}
	],
	"nodes":[
		{
			"mesh":0,
			"name":"Mesh_0",
			"translation":[
				-52.356170654296875,
				0,
				-7.017999649047852
			]
		},
		{
			"mesh":1,
			"name":"Mesh_1",
			"translation":[
				-52.356170654296875,
				0,
				-7.017999649047852
			]
		},
		{
			"mesh":2,
			"name":"Mesh_2",
			"translation":[
				-52.356170654296875,
				0,
				-7.017999649047852
			]
		},
		{
			"mesh":3,
			"name":"Mesh_3",
			"translation":[
				-52.356170654296875,
				0,
				-7.017999649047852
			]
		},
		{
			"mesh":4,
			"name":"Cube"
		}
	],
	"materials":[
		{
			"doubleSided":true,
			"extensions":{
				"KHR_materials_clearcoat":{
					"clearcoatFactor":0.05000000074505806,
					"clearcoatRoughnessFactor":0
				},
				"KHR_materials_transmission":{
					"transmissionFactor":1
				}
			},
			"name":"Material_0",
			"pbrMetallicRoughness":{
				"baseColorFactor":[
					0.637596845626831,
					0.6653872728347778,
					0.7083757519721985,
					1
				],
				"metallicFactor":0,
				"roughnessFactor":0
			}
		},
		{
			"doubleSided":true,
			"name":"Material",
			"pbrMetallicRoughness":{
				"baseColorFactor":[
					0.800000011920929,
					0.800000011920929,
					0.800000011920929,
					1
				],
				"metallicFactor":0,
				"roughnessFactor":0.5
			}
		}
	],
	"meshes":[
		{
			"name":"Mesh_0",
			"primitives":[
				{
					"attributes":{
						"POSITION":0,
						"NORMAL":1,
						"TEXCOORD_0":2
					},
					"indices":3,
					"material":0
				}
			]
		},
		{
			"name":"Mesh_1",
			"primitives":[
				{
					"attributes":{
						"POSITION":4,
						"NORMAL":5,
						"TEXCOORD_0":6
					},
					"indices":7,
					"material":0
				}
			]
		},
		{
			"name":"Mesh_2",
			"primitives":[
				{
					"attributes":{
						"POSITION":8,
						"NORMAL":9,
						"TEXCOORD_0":10
					},
					"indices":11,
					"material":0
				}
			]
		},
		{
			"name":"Mesh_3",
			"primitives":[
				{
					"attributes":{
						"POSITION":12,
						"NORMAL":13,
						"TEXCOORD_0":14
					},
					"indices":15,
					"material":0
				}
			]
		},
		{
			"name":"Cube",
			"primitives":[
				{
					"attributes":{
						"POSITION":16,
						"NORMAL":17,
						"TEXCOORD_0":18
					},
					"indices":19,
					"material":1
				}
			]
		}
	],
	"accessors":[
		{
			"bufferView":0,
			"componentType":5126,
			"count":4560,
			"max":[
				85.15319061279297,
				66.67950439453125,
				15.100000381469727
			],
			"min":[
				2.4152493476867676,
				0.3475075662136078,
				-0.6000000238418579
			],
			"type":"VEC3"
		},
		{
			"bufferView":1,
			"componentType":5126,
			"count":4560,
			"type":"VEC3"
		},
		{
			"bufferView":2,
			"componentType":5126,
			"count":4560,
			"type":"VEC2"
		},
		{
			"bufferView":3,
			"componentType":5123,
			"count":4560,
			"type":"SCALAR"
		},
		{
			"bufferView":4,
			"componentType":5126,
			"count":816,
			"max":[
				79.65413665771484,
				56.839752197265625,
				15.100000381469727
			],
			"min":[
				46.26713943481445,
				12.646828651428223,
				-0.6000000238418579
			],
			"type":"VEC3"
		},
		{
			"bufferView":5,
			"componentType":5126,
			"count":816,
			"type":"VEC3"
		},
		{
			"bufferView":6,
			"componentType":5126,
			"count":816,
			"type":"VEC2"
		},
		{
			"bufferView":7,
			"componentType":5123,
			"count":816,
			"type":"SCALAR"
		},
		{
			"bufferView":8,
			"componentType":5126,
			"count":780,
			"max":[
				40.326663970947266,
				54.25849914550781,
				15.100000381469727
			],
			"min":[
				7.909153461456299,
				11.287927627563477,
				-0.6000000238418579
			],
			"type":"VEC3"
		},
		{
			"bufferView":9,
			"componentType":5126,
			"count":780,
			"type":"VEC3"
		},
		{
			"bufferView":10,
			"componentType":5126,
			"count":780,
			"type":"VEC2"
		},
		{
			"bufferView":11,
			"componentType":5123,
			"count":780,
			"type":"SCALAR"
		},
		{
			"bufferView":12,
			"componentType":5126,
			"count":1608,
			"max":[
				55.66923904418945,
				60.94248580932617,
				15.100000381469727
			],
			"min":[
				31.15614891052246,
				6.072656154632568,
				-0.6000000238418579
			],
			"type":"VEC3"
		},
		{
			"bufferView":13,
			"componentType":5126,
			"count":1608,
			"type":"VEC3"
		},
		{
			"bufferView":14,
			"componentType":5126,
			"count":1608,
			"type":"VEC2"
		},
		{
			"bufferView":15,
			"componentType":5123,
			"count":1608,
			"type":"SCALAR"
		},
		{
			"bufferView":16,
			"componentType":5126,
			"count":24,
			"max":[
				1,
				1,
				1
			],
			"min":[
				-1,
				-1,
				-1
			],
			"type":"VEC3"
		},
		{
			"bufferView":17,
			"componentType":5126,
			"count":24,
			"type":"VEC3"
		},
		{
			"bufferView":18,
			"componentType":5126,
			"count":24,
			"type":"VEC2"
		},
		{
			"bufferView":19,
			"componentType":5123,
			"count":36,
			"type":"SCALAR"
		}
	],
	"bufferViews":[
		{
			"buffer":0,
			"byteLength":54720,
			"byteOffset":0,
			"target":34962
		},
		{
			"buffer":0,
			"byteLength":54720,
			"byteOffset":54720,
			"target":34962
		},
		{
			"buffer":0,
			"byteLength":36480,
			"byteOffset":109440,
			"target":34962
		},
		{
			"buffer":0,
			"byteLength":9120,
			"byteOffset":145920,
			"target":34963
		},
		{
			"buffer":0,
			"byteLength":9792,
			"byteOffset":155040,
			"target":34962
		},
		{
			"buffer":0,
			"byteLength":9792,
			"byteOffset":164832,
			"target":34962
		},
		{
			"buffer":0,
			"byteLength":6528,
			"byteOffset":174624,
			"target":34962
		},
		{
			"buffer":0,
			"byteLength":1632,
			"byteOffset":181152,
			"target":34963
		},
		{
			"buffer":0,
			"byteLength":9360,
			"byteOffset":182784,
			"target":34962
		},
		{
			"buffer":0,
			"byteLength":9360,
			"byteOffset":192144,
			"target":34962
		},
		{
			"buffer":0,
			"byteLength":6240,
			"byteOffset":201504,
			"target":34962
		},
		{
			"buffer":0,
			"byteLength":1560,
			"byteOffset":207744,
			"target":34963
		},
		{
			"buffer":0,
			"byteLength":19296,
			"byteOffset":209304,
			"target":34962
		},
		{
			"buffer":0,
			"byteLength":19296,
			"byteOffset":228600,
			"target":34962
		},
		{
			"buffer":0,
			"byteLength":12864,
			"byteOffset":247896,
			"target":34962
		},
		{
			"buffer":0,
			"byteLength":3216,
			"byteOffset":260760,
			"target":34963
		},
		{
			"buffer":0,
			"byteLength":288,
			"byteOffset":263976,
			"target":34962
		},
		{
			"buffer":0,
			"byteLength":288,
			"byteOffset":264264,
			"target":34962
		},
		{
			"buffer":0,
			"byteLength":192,
			"byteOffset":264552,
			"target":34962
		},
		{
			"buffer":0,
			"byteLength":72,
			"byteOffset":264744,
			"target":34963
		}
	],
	"buffers":[
		{
			"byteLength":264816,
			"uri":"sitebulb.bin"
		}
	]
}
