{"asset":{"version":"2.0","generator":"THREE.GLTFExporter r175"},"scenes":[{"name":"AuxScene","nodes":[8]}],"scene":0,"nodes":[{"mesh":0},{"mesh":1},{"mesh":2},{"mesh":3},{"matrix":[0.13810679320049754,0,-0.13810679320049757,0,0,-0.1953125,0,0,0.13810679320049757,0,0.13810679320049754,0,0,0,0,1],"children":[0,1,2,3]},{"children":[4]},{"matrix":[1,0,0,0,0,1,0,0,0,0,1,0,-36.78891430151356,38.08352952315049,33.574792760424025,1],"children":[5]},{"children":[6]},{"children":[7]}],"bufferViews":[{"buffer":0,"byteOffset":0,"byteLength":13680,"target":34962,"byteStride":12},{"buffer":0,"byteOffset":13680,"byteLength":9120,"target":34962,"byteStride":8},{"buffer":0,"byteOffset":22800,"byteLength":13680,"target":34962,"byteStride":12},{"buffer":0,"byteOffset":36480,"byteLength":30960,"target":34962,"byteStride":12},{"buffer":0,"byteOffset":67440,"byteLength":20640,"target":34962,"byteStride":8},{"buffer":0,"byteOffset":88080,"byteLength":30960,"target":34962,"byteStride":12},{"buffer":0,"byteOffset":119040,"byteLength":30960,"target":34962,"byteStride":12},{"buffer":0,"byteOffset":150000,"byteLength":20640,"target":34962,"byteStride":8},{"buffer":0,"byteOffset":170640,"byteLength":30960,"target":34962,"byteStride":12},{"buffer":0,"byteOffset":201600,"byteLength":27504,"target":34962,"byteStride":12},{"buffer":0,"byteOffset":229104,"byteLength":18336,"target":34962,"byteStride":8},{"buffer":0,"byteOffset":247440,"byteLength":27504,"target":34962,"byteStride":12}],"buffers":[{"byteLength":274944,"uri":"data:application/octet-stream;base64,"}],"accessors":[{"bufferView":0,"componentType":5126,"count":1140,"max":[496.301513671875,504.301513671875,100.5999984741211],"min":[-0.3015232980251312,7.698476791381836,-0.6000000238418579],"type":"VEC3"},{"bufferView":1,"componentType":5126,"count":1140,"max":[496,504],"min":[0,-99.5999984741211],"type":"VEC2"},{"bufferView":2,"componentType":5126,"count":1140,"max":[0.9949479699134827,0.9949479699134827,1],"min":[-0.9949479699134827,-0.9949479699134827,-1],"type":"VEC3"},{"bufferView":3,"componentType":5126,"count":2580,"max":[430.100830078125,231.40048217773438,100.5999984741211],"min":[76.29888153076172,137.09994506835938,-0.6000000238418579],"type":"VEC3"},{"bufferView":4,"componentType":5126,"count":2580,"max":[429.79998779296875,231.10000610351562],"min":[76.5999984741211,-99.5999984741211],"type":"VEC2"},{"bufferView":5,"componentType":5126,"count":2580,"max":[0.9984491467475891,0.9997290968894958,1],"min":[-0.9969370365142822,-0.9998950958251953,-1],"type":"VEC3"},{"bufferView":6,"componentType":5126,"count":2580,"max":[395.30078125,307.600830078125,100.5999984741211],"min":[93.09904479980469,222.29991149902344,-0.6000000238418579],"type":"VEC3"},{"bufferView":7,"componentType":5126,"count":2580,"max":[395,307.29998779296875],"min":[93.4000015258789,-99.5999984741211],"type":"VEC2"},{"bufferView":8,"componentType":5126,"count":2580,"max":[0.9988154768943787,0.9999719262123108,1],"min":[-0.9979973435401917,-0.9998447299003601,-1],"type":"VEC3"},{"bufferView":9,"componentType":5126,"count":2292,"max":[364.2007751464844,373.2005920410156,100.5999984741211],"min":[103.2989273071289,303.5766906738281,-0.6000000238418579],"type":"VEC3"},{"bufferView":10,"componentType":5126,"count":2292,"max":[368.828369140625,372.8999938964844],"min":[103.5999984741211,-99.5999984741211],"type":"VEC2"},{"bufferView":11,"componentType":5126,"count":2292,"max":[0.9986146092414856,0.9993520379066467,1],"min":[-0.9970797896385193,-0.9991855025291443,-1],"type":"VEC3"}],"materials":[{"pbrMetallicRoughness":{"baseColorFactor":[0.6375968739867731,0.6653872982754769,0.7083757798856457,1],"metallicFactor":0,"roughnessFactor":0},"doubleSided":true,"extensions":{"KHR_materials_transmission":{"transmissionFactor":1},"KHR_materials_volume":{"thicknessFactor":0,"attenuationColor":[1,1,1]},"KHR_materials_clearcoat":{"clearcoatFactor":0.05,"clearcoatRoughnessFactor":0}}}],"meshes":[{"primitives":[{"mode":4,"attributes":{"POSITION":0,"TEXCOORD_0":1,"NORMAL":2},"material":0}]},{"primitives":[{"mode":4,"attributes":{"POSITION":3,"TEXCOORD_0":4,"NORMAL":5},"material":0}]},{"primitives":[{"mode":4,"attributes":{"POSITION":6,"TEXCOORD_0":7,"NORMAL":8},"material":0}]},{"primitives":[{"mode":4,"attributes":{"POSITION":9,"TEXCOORD_0":10,"NORMAL":11},"material":0}]}],"extensionsUsed":["KHR_materials_transmission","KHR_materials_volume","KHR_materials_clearcoat"]}