<svg width="27" height="26" viewBox="0 0 27 26" fill="none" xmlns="http://www.w3.org/2000/svg">
<path fill-rule="evenodd" clip-rule="evenodd" d="M13.4528 0C6.02604 0 0 5.82322 0 13C0 20.1768 6.02604 26 13.4528 26C20.865 26 26.9056 20.1768 26.9056 13C26.9056 5.82322 20.865 0 13.4528 0ZM22.3386 5.9924C23.9436 7.88177 24.9066 10.2929 24.9358 12.9013C24.5565 12.8308 20.7628 12.0835 16.94 12.5488C16.8525 12.3655 16.7795 12.1681 16.692 11.9707C16.4585 11.4349 16.1959 10.885 15.9332 10.3633C20.1646 8.69957 22.0906 6.30261 22.3386 5.9924ZM13.4528 1.91757C16.371 1.91757 19.0411 2.97505 21.0692 4.70933C20.865 4.99132 19.1286 7.2332 15.0432 8.71367C13.161 5.37202 11.0745 2.63666 10.7535 2.21367C11.6143 2.01627 12.519 1.91757 13.4528 1.91757ZM8.56485 2.96096C8.87125 3.35574 10.914 6.10522 12.8254 9.37635C7.45594 10.7581 2.71391 10.7299 2.20322 10.7299C2.94734 7.28959 5.35486 4.42733 8.56485 2.96096ZM1.95518 13.0141C1.95518 12.9013 1.95518 12.7885 1.95518 12.6757C2.45127 12.6898 8.02499 12.7603 13.7592 11.0965C14.0948 11.7169 14.4012 12.3514 14.693 12.9859C14.5471 13.0282 14.3866 13.0705 14.2407 13.1128C8.31681 14.9599 5.16517 20.0076 4.90255 20.4306C3.07867 18.4707 1.95518 15.8623 1.95518 13.0141ZM13.4528 24.1106C10.7973 24.1106 8.34598 23.2364 6.40538 21.7701C6.60968 21.3612 8.94422 17.0184 15.4225 14.833C15.4517 14.8189 15.4663 14.8189 15.4955 14.8048C17.1151 18.8514 17.7717 22.2494 17.9468 23.2223C16.5607 23.8004 15.0432 24.1106 13.4528 24.1106ZM19.8582 22.2072C19.7415 21.5304 19.1287 18.2874 17.6258 14.2972C21.2297 13.7473 24.3813 14.6497 24.7753 14.7766C24.2792 17.8644 22.4408 20.5293 19.8582 22.2072Z" fill="#484545"/>
</svg>
